<svg width="109" height="16" viewBox="0 0 109 16" fill="none" xmlns="http://www.w3.org/2000/svg">
<path d="M0.68 11.82V10.02L7.58 0.999999H10.36L3.56 10.02L2.26 9.62H13.36V11.82H0.68ZM8.36 15V11.82L8.44 9.62V6.8H10.88V15H8.36ZM16.1509 7.52C15.6976 7.52 15.3109 7.36667 14.9909 7.06C14.6709 6.74 14.5109 6.34 14.5109 5.86C14.5109 5.35333 14.6709 4.95333 14.9909 4.66C15.3109 4.35333 15.6976 4.2 16.1509 4.2C16.6043 4.2 16.9909 4.35333 17.3109 4.66C17.6309 4.95333 17.7909 5.35333 17.7909 5.86C17.7909 6.34 17.6309 6.74 17.3109 7.06C16.9909 7.36667 16.6043 7.52 16.1509 7.52ZM16.1509 15.14C15.6976 15.14 15.3109 14.9867 14.9909 14.68C14.6709 14.36 14.5109 13.96 14.5109 13.48C14.5109 12.9733 14.6709 12.5733 14.9909 12.28C15.3109 11.9733 15.6976 11.82 16.1509 11.82C16.6043 11.82 16.9909 11.9733 17.3109 12.28C17.6309 12.5733 17.7909 12.9733 17.7909 13.48C17.7909 13.96 17.6309 14.36 17.3109 14.68C16.9909 14.9867 16.6043 15.14 16.1509 15.14ZM19.2938 15V13.26L24.8538 7.98C25.3204 7.54 25.6671 7.15333 25.8938 6.82C26.1204 6.48667 26.2671 6.18 26.3338 5.9C26.4138 5.60667 26.4538 5.33333 26.4538 5.08C26.4538 4.44 26.2338 3.94667 25.7938 3.6C25.3538 3.24 24.7071 3.06 23.8538 3.06C23.1738 3.06 22.5538 3.18 21.9938 3.42C21.4471 3.66 20.9738 4.02667 20.5738 4.52L18.7538 3.12C19.3004 2.38667 20.0338 1.82 20.9538 1.42C21.8871 1.00667 22.9271 0.799999 24.0738 0.799999C25.0871 0.799999 25.9671 0.966666 26.7138 1.3C27.4738 1.62 28.0538 2.08 28.4538 2.68C28.8671 3.28 29.0738 3.99333 29.0738 4.82C29.0738 5.27333 29.0138 5.72667 28.8938 6.18C28.7738 6.62 28.5471 7.08667 28.2138 7.58C27.8804 8.07333 27.3938 8.62667 26.7538 9.24L21.9738 13.78L21.4338 12.8H29.6137V15H19.2938ZM36.9544 15.2C35.8477 15.2 34.8477 14.92 33.9544 14.36C33.0744 13.8 32.381 12.9867 31.8744 11.92C31.3677 10.84 31.1144 9.53333 31.1144 8C31.1144 6.46667 31.3677 5.16667 31.8744 4.1C32.381 3.02 33.0744 2.2 33.9544 1.64C34.8477 1.08 35.8477 0.799999 36.9544 0.799999C38.0744 0.799999 39.0744 1.08 39.9544 1.64C40.8344 2.2 41.5277 3.02 42.0344 4.1C42.5544 5.16667 42.8144 6.46667 42.8144 8C42.8144 9.53333 42.5544 10.84 42.0344 11.92C41.5277 12.9867 40.8344 13.8 39.9544 14.36C39.0744 14.92 38.0744 15.2 36.9544 15.2ZM36.9544 12.94C37.6077 12.94 38.1744 12.7667 38.6544 12.42C39.1344 12.06 39.5077 11.5133 39.7744 10.78C40.0544 10.0467 40.1944 9.12 40.1944 8C40.1944 6.86667 40.0544 5.94 39.7744 5.22C39.5077 4.48667 39.1344 3.94667 38.6544 3.6C38.1744 3.24 37.6077 3.06 36.9544 3.06C36.3277 3.06 35.7677 3.24 35.2744 3.6C34.7944 3.94667 34.4144 4.48667 34.1344 5.22C33.8677 5.94 33.7344 6.86667 33.7344 8C33.7344 9.12 33.8677 10.0467 34.1344 10.78C34.4144 11.5133 34.7944 12.06 35.2744 12.42C35.7677 12.7667 36.3277 12.94 36.9544 12.94ZM55.4388 15.2C54.3454 15.2 53.2988 15.0467 52.2988 14.74C51.2988 14.42 50.5054 14.0133 49.9188 13.52L50.8188 11.5C51.3788 11.94 52.0721 12.3067 52.8988 12.6C53.7254 12.8933 54.5721 13.04 55.4388 13.04C56.1721 13.04 56.7654 12.96 57.2188 12.8C57.6721 12.64 58.0054 12.4267 58.2188 12.16C58.4321 11.88 58.5388 11.5667 58.5388 11.22C58.5388 10.7933 58.3854 10.4533 58.0788 10.2C57.7721 9.93333 57.3721 9.72667 56.8788 9.58C56.3988 9.42 55.8588 9.27333 55.2588 9.14C54.6721 9.00667 54.0788 8.85333 53.4788 8.68C52.8921 8.49333 52.3521 8.26 51.8587 7.98C51.3788 7.68667 50.9854 7.3 50.6788 6.82C50.3721 6.34 50.2188 5.72667 50.2188 4.98C50.2188 4.22 50.4188 3.52667 50.8188 2.9C51.2321 2.26 51.8521 1.75333 52.6788 1.38C53.5188 0.993332 54.5788 0.799999 55.8588 0.799999C56.6988 0.799999 57.5321 0.906666 58.3588 1.12C59.1854 1.33333 59.9054 1.64 60.5187 2.04L59.6988 4.06C59.0721 3.68667 58.4254 3.41333 57.7588 3.24C57.0921 3.05333 56.4521 2.96 55.8388 2.96C55.1188 2.96 54.5321 3.04667 54.0788 3.22C53.6388 3.39333 53.3121 3.62 53.0988 3.9C52.8988 4.18 52.7988 4.5 52.7988 4.86C52.7988 5.28667 52.9454 5.63333 53.2388 5.9C53.5454 6.15333 53.9388 6.35333 54.4188 6.5C54.9121 6.64667 55.4588 6.79333 56.0588 6.94C56.6588 7.07333 57.2521 7.22667 57.8388 7.4C58.4388 7.57333 58.9788 7.8 59.4588 8.08C59.9521 8.36 60.3454 8.74 60.6388 9.22C60.9454 9.7 61.0988 10.3067 61.0988 11.04C61.0988 11.7867 60.8921 12.48 60.4788 13.12C60.0788 13.7467 59.4588 14.2533 58.6188 14.64C57.7788 15.0133 56.7188 15.2 55.4388 15.2ZM73.5169 0.999999H76.1169V15H73.5169V0.999999ZM66.2769 15H63.6769V0.999999H66.2769V15ZM73.7169 9H66.0569V6.78H73.7169V9ZM86.4283 15.2C85.3349 15.2 84.3283 15.02 83.4083 14.66C82.4883 14.3 81.6883 13.8 81.0083 13.16C80.3283 12.5067 79.8016 11.7467 79.4283 10.88C79.0549 10 78.8683 9.04 78.8683 8C78.8683 6.96 79.0549 6.00667 79.4283 5.14C79.8016 4.26 80.3283 3.5 81.0083 2.86C81.6883 2.20667 82.4883 1.7 83.4083 1.34C84.3283 0.979999 85.3283 0.799999 86.4083 0.799999C87.5016 0.799999 88.5016 0.979999 89.4083 1.34C90.3283 1.7 91.1283 2.20667 91.8083 2.86C92.4883 3.5 93.0149 4.26 93.3883 5.14C93.7616 6.00667 93.9483 6.96 93.9483 8C93.9483 9.04 93.7616 10 93.3883 10.88C93.0149 11.76 92.4883 12.52 91.8083 13.16C91.1283 13.8 90.3283 14.3 89.4083 14.66C88.5016 15.02 87.5083 15.2 86.4283 15.2ZM86.4083 12.92C87.1149 12.92 87.7683 12.8 88.3683 12.56C88.9683 12.32 89.4883 11.98 89.9283 11.54C90.3683 11.0867 90.7083 10.5667 90.9483 9.98C91.2016 9.38 91.3283 8.72 91.3283 8C91.3283 7.28 91.2016 6.62667 90.9483 6.04C90.7083 5.44 90.3683 4.92 89.9283 4.48C89.4883 4.02667 88.9683 3.68 88.3683 3.44C87.7683 3.2 87.1149 3.08 86.4083 3.08C85.7016 3.08 85.0483 3.2 84.4483 3.44C83.8616 3.68 83.3416 4.02667 82.8883 4.48C82.4483 4.92 82.1016 5.44 81.8483 6.04C81.6083 6.62667 81.4883 7.28 81.4883 8C81.4883 8.70667 81.6083 9.36 81.8483 9.96C82.1016 10.56 82.4483 11.0867 82.8883 11.54C83.3283 11.98 83.8483 12.32 84.4483 12.56C85.0483 12.8 85.7016 12.92 86.4083 12.92ZM96.7042 15V0.999999H102.464C103.704 0.999999 104.764 1.2 105.644 1.6C106.538 2 107.224 2.57333 107.704 3.32C108.184 4.06667 108.424 4.95333 108.424 5.98C108.424 7.00667 108.184 7.89333 107.704 8.64C107.224 9.38667 106.538 9.96 105.644 10.36C104.764 10.76 103.704 10.96 102.464 10.96H98.1442L99.3042 9.74V15H96.7042ZM99.3042 10.02L98.1442 8.76H102.344C103.491 8.76 104.351 8.52 104.924 8.04C105.511 7.54667 105.804 6.86 105.804 5.98C105.804 5.08667 105.511 4.4 104.924 3.92C104.351 3.44 103.491 3.2 102.344 3.2H98.1442L99.3042 1.92V10.02Z" fill="white"/>
</svg>
